# Blender 5.0.0
# www.blender.org
mtllib player.mtl
o Cube.001
v -0.151082 0.231861 -0.198653
v -0.151082 0.322600 -0.159863
v -0.192705 0.322600 -0.198653
v -0.151082 1.052351 -0.159863
v -0.151082 1.143090 -0.198653
v -0.192705 1.052351 -0.198653
v -0.151082 0.231861 -0.510617
v -0.192705 0.322600 -0.510617
v -0.151082 0.322600 -0.549407
v -0.151082 1.143090 -0.510617
v -0.151082 1.052351 -0.549407
v -0.192705 1.052351 -0.510617
v 0.183669 0.231861 -0.198653
v 0.225292 0.322600 -0.198653
v 0.183669 0.322600 -0.159863
v 0.183669 1.143090 -0.198653
v 0.183669 1.052351 -0.159863
v 0.225292 1.052351 -0.198653
v 0.183669 0.231861 -0.510617
v 0.183669 0.322600 -0.549407
v 0.225292 0.322600 -0.510617
v 0.183669 1.143090 -0.510617
v 0.225292 1.052351 -0.510617
v 0.183669 1.052351 -0.549407
vn -0.6507 -0.2985 0.6982
vn -0.6507 0.2985 0.6982
vn -0.6507 -0.2985 -0.6982
vn -0.6507 0.2985 -0.6982
vn 0.6507 -0.2985 0.6982
vn 0.6507 0.2985 0.6982
vn 0.6507 -0.2985 -0.6982
vn 0.6507 0.2985 -0.6982
vn -0.9089 -0.4169 -0.0000
vn -0.6818 -0.0000 0.7316
vn -0.9089 0.4169 -0.0000
vn -0.6818 -0.0000 -0.7316
vn -0.0000 -0.3931 -0.9195
vn -0.0000 0.3931 -0.9195
vn 0.6818 -0.0000 -0.7316
vn 0.9089 -0.4169 -0.0000
vn 0.9089 0.4169 -0.0000
vn 0.6818 -0.0000 0.7316
vn -0.0000 -0.3931 0.9195
vn -0.0000 0.3931 0.9195
vn -0.0000 -1.0000 -0.0000
vn -1.0000 -0.0000 -0.0000
vn -0.0000 -0.0000 1.0000
vn -0.0000 1.0000 -0.0000
vn -0.0000 -0.0000 -1.0000
vn 1.0000 -0.0000 -0.0000
vt 0.149895 0.725105
vt 0.149895 0.750000
vt 0.125000 0.725105
vt 0.600105 0.000000
vt 0.625000 0.024895
vt 0.600105 0.024895
vt 0.149895 0.524895
vt 0.125000 0.524895
vt 0.149895 0.500000
vt 0.625000 0.241702
vt 0.600105 0.268671
vt 0.600105 0.225105
vt 0.350105 0.725105
vt 0.393671 0.725105
vt 0.375000 0.762447
vt 0.637447 0.750000
vt 0.600105 0.774895
vt 0.600105 0.731329
vt 0.350105 0.524895
vt 0.375000 0.487553
vt 0.393671 0.524895
vt 0.637447 0.500000
vt 0.600105 0.518671
vt 0.600105 0.475105
vt 0.399895 0.000000
vt 0.399895 0.024895
vt 0.399895 0.274895
vt 0.399895 0.225105
vt 0.625000 0.975105
vt 0.600105 0.975105
vt 0.399895 0.975105
vt 0.850105 0.524895
vt 0.850105 0.725105
s 0
f 1/1/1 2/2/1 3/3/1
f 4/4/2 5/5/2 6/6/2
f 7/7/3 8/8/3 9/9/3
f 10/10/4 11/11/4 12/12/4
f 13/13/5 14/14/5 15/15/5
f 16/16/6 17/17/6 18/18/6
f 19/19/7 20/20/7 21/21/7
f 22/22/8 23/23/8 24/24/8
f 7/7/9 1/1/9 3/3/9 8/8/9
f 2/25/10 4/4/10 6/6/10 3/26/10
f 5/5/11 10/10/11 12/12/11 6/6/11
f 11/11/12 9/27/12 8/28/12 12/12/12
f 19/19/13 7/7/13 9/9/13 20/20/13
f 10/10/14 22/22/14 24/24/14 11/11/14
f 23/23/15 21/21/15 20/20/15 24/24/15
f 13/13/16 19/19/16 21/21/16 14/14/16
f 22/22/17 16/16/17 18/18/17 23/23/17
f 17/17/18 15/15/18 14/14/18 18/18/18
f 1/1/19 13/13/19 15/15/19 2/2/19
f 16/16/20 5/29/20 4/30/20 17/17/20
f 7/7/21 19/19/21 13/13/21 1/1/21
f 3/26/22 6/6/22 12/12/22 8/28/22
f 15/15/23 17/17/23 4/30/23 2/31/23
f 22/22/24 10/32/24 5/33/24 16/16/24
f 9/27/25 11/11/25 24/24/25 20/20/25
f 21/21/26 23/23/26 18/18/26 14/14/26
o Cube.002
v -0.151082 0.231861 0.496229
v -0.151082 0.322600 0.535020
v -0.192705 0.322600 0.496229
v -0.151082 1.052351 0.535020
v -0.151082 1.143090 0.496229
v -0.192705 1.052351 0.496229
v -0.151082 0.231861 0.184266
v -0.192705 0.322600 0.184266
v -0.151082 0.322600 0.145475
v -0.151082 1.143090 0.184266
v -0.151082 1.052351 0.145475
v -0.192705 1.052351 0.184266
v 0.183669 0.231861 0.496229
v 0.225292 0.322600 0.496229
v 0.183669 0.322600 0.535020
v 0.183669 1.143090 0.496229
v 0.183669 1.052351 0.535020
v 0.225292 1.052351 0.496229
v 0.183669 0.231861 0.184266
v 0.183669 0.322600 0.145475
v 0.225292 0.322600 0.184266
v 0.183669 1.143090 0.184266
v 0.225292 1.052351 0.184266
v 0.183669 1.052351 0.145475
vn -0.6507 -0.2985 0.6982
vn -0.6507 0.2985 0.6982
vn -0.6507 -0.2985 -0.6982
vn -0.6507 0.2985 -0.6982
vn 0.6507 -0.2985 0.6982
vn 0.6507 0.2985 0.6982
vn 0.6507 -0.2985 -0.6982
vn 0.6507 0.2985 -0.6982
vn -0.9089 -0.4169 -0.0000
vn -0.6818 -0.0000 0.7316
vn -0.9089 0.4169 -0.0000
vn -0.6818 -0.0000 -0.7316
vn -0.0000 -0.3931 -0.9195
vn -0.0000 0.3931 -0.9195
vn 0.6818 -0.0000 -0.7316
vn 0.9089 -0.4169 -0.0000
vn 0.9089 0.4169 -0.0000
vn 0.6818 -0.0000 0.7316
vn -0.0000 -0.3931 0.9195
vn -0.0000 0.3931 0.9195
vn -0.0000 -1.0000 -0.0000
vn -1.0000 -0.0000 -0.0000
vn -0.0000 -0.0000 1.0000
vn -0.0000 1.0000 -0.0000
vn -0.0000 -0.0000 -1.0000
vn 1.0000 -0.0000 -0.0000
vt 0.149895 0.725105
vt 0.149895 0.750000
vt 0.125000 0.725105
vt 0.600105 0.000000
vt 0.625000 0.024895
vt 0.600105 0.024895
vt 0.149895 0.524895
vt 0.125000 0.524895
vt 0.149895 0.500000
vt 0.625000 0.241702
vt 0.600105 0.268671
vt 0.600105 0.225105
vt 0.350105 0.725105
vt 0.393671 0.725105
vt 0.375000 0.762447
vt 0.637447 0.750000
vt 0.600105 0.774895
vt 0.600105 0.731329
vt 0.350105 0.524895
vt 0.375000 0.487553
vt 0.393671 0.524895
vt 0.637447 0.500000
vt 0.600105 0.518671
vt 0.600105 0.475105
vt 0.399895 0.000000
vt 0.399895 0.024895
vt 0.399895 0.274895
vt 0.399895 0.225105
vt 0.625000 0.975105
vt 0.600105 0.975105
vt 0.399895 0.975105
vt 0.850105 0.524895
vt 0.850105 0.725105
s 0
f 25/34/27 26/35/27 27/36/27
f 28/37/28 29/38/28 30/39/28
f 31/40/29 32/41/29 33/42/29
f 34/43/30 35/44/30 36/45/30
f 37/46/31 38/47/31 39/48/31
f 40/49/32 41/50/32 42/51/32
f 43/52/33 44/53/33 45/54/33
f 46/55/34 47/56/34 48/57/34
f 31/40/35 25/34/35 27/36/35 32/41/35
f 26/58/36 28/37/36 30/39/36 27/59/36
f 29/38/37 34/43/37 36/45/37 30/39/37
f 35/44/38 33/60/38 32/61/38 36/45/38
f 43/52/39 31/40/39 33/42/39 44/53/39
f 34/43/40 46/55/40 48/57/40 35/44/40
f 47/56/41 45/54/41 44/53/41 48/57/41
f 37/46/42 43/52/42 45/54/42 38/47/42
f 46/55/43 40/49/43 42/51/43 47/56/43
f 41/50/44 39/48/44 38/47/44 42/51/44
f 25/34/45 37/46/45 39/48/45 26/35/45
f 40/49/46 29/62/46 28/63/46 41/50/46
f 31/40/47 43/52/47 37/46/47 25/34/47
f 27/59/48 30/39/48 36/45/48 32/61/48
f 39/48/49 41/50/49 28/63/49 26/64/49
f 46/55/50 34/65/50 29/66/50 40/49/50
f 33/60/51 35/44/51 48/57/51 44/53/51
f 45/54/52 47/56/52 42/51/52 38/47/52
o Cube.003
v 0.413084 0.632791 -0.546537
v 0.413084 0.515386 -0.728370
v 0.542793 0.515386 -0.546537
v 0.413084 -0.185428 -0.728370
v 0.413084 -0.302833 -0.546537
v 0.542793 -0.185428 -0.546537
v 0.413084 0.632791 0.538873
v 0.542793 0.515386 0.538873
v 0.413084 0.515386 0.720707
v 0.413084 -0.302833 0.538873
v 0.413084 -0.185428 0.720707
v 0.542793 -0.185428 0.538873
v -0.361176 0.632791 -0.546537
v -0.490884 0.515386 -0.546537
v -0.361176 0.515386 -0.728370
v -0.361176 -0.302833 -0.546537
v -0.361176 -0.185428 -0.728370
v -0.490884 -0.185428 -0.546537
v -0.361176 0.632791 0.538873
v -0.361176 0.515386 0.720707
v -0.490884 0.515386 0.538873
v -0.361176 -0.302833 0.538873
v -0.490884 -0.185428 0.538873
v -0.361176 -0.185428 0.720707
vn 0.6053 0.6687 -0.4318
vn 0.6053 -0.6687 -0.4318
vn 0.6053 0.6687 0.4318
vn 0.6053 -0.6687 0.4318
vn -0.6053 0.6687 -0.4318
vn -0.6053 -0.6687 -0.4318
vn -0.6053 0.6687 0.4318
vn -0.6053 -0.6687 0.4318
vn 0.6711 0.7414 -0.0000
vn 0.8141 -0.0000 -0.5807
vn 0.6711 -0.7414 -0.0000
vn 0.8141 -0.0000 0.5807
vn -0.0000 0.8401 0.5424
vn -0.0000 -0.8401 0.5424
vn -0.8141 -0.0000 0.5807
vn -0.6711 0.7414 -0.0000
vn -0.6711 -0.7414 -0.0000
vn -0.8141 -0.0000 -0.5807
vn -0.0000 0.8401 -0.5424
vn -0.0000 -0.8401 -0.5424
vn -0.0000 1.0000 -0.0000
vn 1.0000 -0.0000 -0.0000
vn -0.0000 -0.0000 -1.0000
vn -0.0000 -1.0000 -0.0000
vn -0.0000 -0.0000 1.0000
vn -1.0000 -0.0000 -0.0000
vt 0.156371 0.718629
vt 0.156371 0.750000
vt 0.125000 0.718629
vt 0.593629 0.000000
vt 0.625000 0.031371
vt 0.593629 0.031371
vt 0.156371 0.531371
vt 0.125000 0.531371
vt 0.156371 0.500000
vt 0.625000 0.239543
vt 0.593629 0.273528
vt 0.593629 0.218629
vt 0.343629 0.718629
vt 0.398528 0.718629
vt 0.375000 0.765685
vt 0.640685 0.750000
vt 0.593629 0.781371
vt 0.593629 0.726472
vt 0.343629 0.531371
vt 0.375000 0.484315
vt 0.398528 0.531371
vt 0.640685 0.500000
vt 0.593629 0.523528
vt 0.593629 0.468629
vt 0.406371 0.000000
vt 0.406371 0.031371
vt 0.406371 0.281371
vt 0.406371 0.218629
vt 0.625000 0.968629
vt 0.593629 0.968629
vt 0.406371 0.968629
vt 0.843629 0.531371
vt 0.843629 0.718629
s 0
f 49/67/53 51/69/53 50/68/53
f 52/70/54 54/72/54 53/71/54
f 55/73/55 57/75/55 56/74/55
f 58/76/56 60/78/56 59/77/56
f 61/79/57 63/81/57 62/80/57
f 64/82/58 66/84/58 65/83/58
f 67/85/59 69/87/59 68/86/59
f 70/88/60 72/90/60 71/89/60
f 55/73/61 56/74/61 51/69/61 49/67/61
f 50/91/62 51/92/62 54/72/62 52/70/62
f 53/71/63 54/72/63 60/78/63 58/76/63
f 59/77/64 60/78/64 56/94/64 57/93/64
f 67/85/65 68/86/65 57/75/65 55/73/65
f 58/76/66 59/77/66 72/90/66 70/88/66
f 71/89/67 72/90/67 68/86/67 69/87/67
f 61/79/68 62/80/68 69/87/68 67/85/68
f 70/88/69 71/89/69 66/84/69 64/82/69
f 65/83/70 66/84/70 62/80/70 63/81/70
f 49/67/71 50/68/71 63/81/71 61/79/71
f 64/82/72 65/83/72 52/96/72 53/95/72
f 55/73/73 49/67/73 61/79/73 67/85/73
f 51/92/74 56/94/74 60/78/74 54/72/74
f 63/81/75 50/97/75 52/96/75 65/83/75
f 70/88/76 64/82/76 53/99/76 58/98/76
f 57/93/77 68/86/77 72/90/77 59/77/77
f 69/87/78 62/80/78 66/84/78 71/89/78
o Cone.001
v 0.003334 -0.806433 -0.506772
v 0.204230 -0.806433 -0.462639
v 0.370390 -0.806433 -0.337869
v 0.473083 -0.806433 -0.154038
v 0.494551 -0.806433 0.057069
v 0.431084 -0.806433 0.258949
v 0.293654 -0.806433 0.416696
v 0.106026 -0.806433 0.503034
v -0.099359 -0.806433 0.503034
v -0.286987 -0.806433 0.416696
v -0.424417 -0.806433 0.258949
v -0.487884 -0.806433 0.057069
v -0.466415 -0.806433 -0.154038
v -0.363723 -0.806433 -0.337869
v -0.197563 -0.806433 -0.462639
v 0.003334 0.093386 0.003709
v 0.003334 -0.814636 -0.506772
v 0.204230 -0.814636 -0.462639
v 0.370390 -0.814636 -0.337869
v 0.473083 -0.814636 -0.154038
v 0.494551 -0.814636 0.057069
v 0.431084 -0.814636 0.258949
v 0.293654 -0.814636 0.416696
v 0.106026 -0.814636 0.503034
v -0.099359 -0.814636 0.503034
v -0.286987 -0.814636 0.416696
v -0.424417 -0.814636 0.258949
v -0.487884 -0.814636 0.057069
v -0.466415 -0.814636 -0.154038
v -0.363723 -0.814636 -0.337869
v -0.197563 -0.814636 -0.462639
v 0.003334 -0.875937 -0.394985
v 0.160237 -0.875937 -0.360516
v 0.290011 -0.875937 -0.263069
v 0.370215 -0.875937 -0.119494
v 0.386983 -0.875937 0.045384
v 0.337413 -0.875937 0.203056
v 0.230079 -0.875937 0.326259
v 0.083538 -0.875937 0.393690
v -0.076871 -0.875937 0.393690
v -0.223412 -0.875937 0.326259
v -0.330746 -0.875937 0.203056
v -0.380315 -0.875937 0.045384
v -0.363548 -0.875937 -0.119494
v -0.283344 -0.875937 -0.263069
v -0.153570 -0.875937 -0.360516
vn 0.1877 0.4847 -0.8543
vn 0.5265 0.4809 -0.7011
vn 0.7678 0.4760 -0.4289
vn 0.8764 0.4732 -0.0891
vn 0.8399 0.4742 0.2641
vn 0.6621 0.4784 0.5768
vn 0.3660 0.4831 0.7954
vn -0.0000 0.4852 0.8744
vn -0.3660 0.4831 0.7954
vn -0.6621 0.4784 0.5768
vn -0.8399 0.4742 0.2641
vn -0.8764 0.4732 -0.0891
vn -0.7678 0.4760 -0.4289
vn 0.7540 -0.0000 0.6569
vn -0.5265 0.4809 -0.7011
vn -0.1877 0.4847 -0.8543
vn -0.4986 -0.8653 -0.0507
vn -0.7540 -0.0000 0.6569
vn -0.6005 -0.0000 -0.7997
vn 0.8730 -0.0000 -0.4877
vn 0.4180 -0.0000 0.9084
vn -0.9540 -0.0000 0.2999
vn -0.2146 -0.0000 -0.9767
vn 0.9949 -0.0000 -0.1012
vn 0.2146 -0.0000 -0.9767
vn -0.0000 -0.0000 1.0000
vn -0.9949 -0.0000 -0.1012
vn 0.9540 -0.0000 0.2999
vn -0.4180 -0.0000 0.9084
vn -0.8730 -0.0000 -0.4877
vn 0.6005 -0.0000 -0.7997
vn -0.0000 -1.0000 -0.0000
vn 0.4772 -0.8659 0.1500
vn -0.4350 -0.8670 -0.2430
vn 0.3739 -0.8684 0.3258
vn -0.2962 -0.8698 -0.3945
vn 0.2053 -0.8711 0.4461
vn -0.1050 -0.8720 -0.4782
vn -0.0000 -0.8723 0.4890
vn 0.1050 -0.8720 -0.4782
vn -0.2053 -0.8711 0.4461
vn 0.2962 -0.8698 -0.3945
vn -0.3739 -0.8684 0.3258
vn 0.4350 -0.8670 -0.2430
vn -0.4772 -0.8659 0.1500
vn 0.4986 -0.8653 -0.0507
vt 0.250000 0.490000
vt 0.250000 0.250000
vt 0.347617 0.469251
vt 0.428355 0.410591
vt 0.478254 0.324164
vt 0.488685 0.224913
vt 0.457846 0.130000
vt 0.391068 0.055836
vt 0.299899 0.015245
vt 0.200101 0.015245
vt 0.108932 0.055836
vt 0.042154 0.130000
vt 0.011315 0.224913
vt 0.021746 0.324164
vt 0.071645 0.410591
vt 0.152383 0.469251
vt 0.750000 0.490000
vt 0.847617 0.469251
vt 0.928355 0.410591
vt 0.978254 0.324164
vt 0.988685 0.224913
vt 0.957846 0.130000
vt 0.891068 0.055836
vt 0.799899 0.015245
vt 0.700101 0.015245
vt 0.608932 0.055836
vt 0.542154 0.130000
vt 0.511315 0.224913
vt 0.521746 0.324164
vt 0.571645 0.410591
vt 0.652383 0.469251
s 0
f 73/100/79 88/101/79 74/102/79
f 74/102/80 88/101/80 75/103/80
f 75/103/81 88/101/81 76/104/81
f 76/104/82 88/101/82 77/105/82
f 77/105/83 88/101/83 78/106/83
f 78/106/84 88/101/84 79/107/84
f 79/107/85 88/101/85 80/108/85
f 80/108/86 88/101/86 81/109/86
f 81/109/87 88/101/87 82/110/87
f 82/110/88 88/101/88 83/111/88
f 83/111/89 88/101/89 84/112/89
f 84/112/90 88/101/90 85/113/90
f 85/113/91 88/101/91 86/114/91
f 78/106/92 79/107/92 95/107/92 94/106/92
f 86/114/93 88/101/93 87/115/93
f 87/115/94 88/101/94 73/100/94
f 100/112/95 101/113/95 116/113/95 115/112/95
f 82/110/96 83/111/96 99/111/96 98/110/96
f 86/114/97 87/115/97 103/115/97 102/114/97
f 75/103/98 76/104/98 92/104/98 91/103/98
f 79/107/99 80/108/99 96/108/99 95/107/99
f 83/111/100 84/112/100 100/112/100 99/111/100
f 87/115/101 73/100/101 89/100/101 103/115/101
f 76/104/102 77/105/102 93/105/102 92/104/102
f 73/100/103 74/102/103 90/102/103 89/100/103
f 80/108/104 81/109/104 97/109/104 96/108/104
f 84/112/105 85/113/105 101/113/105 100/112/105
f 77/105/106 78/106/106 94/106/106 93/105/106
f 81/109/107 82/110/107 98/110/107 97/109/107
f 85/113/108 86/114/108 102/114/108 101/113/108
f 74/102/109 75/103/109 91/103/109 90/102/109
f 104/116/110 105/117/110 106/118/110 107/119/110 108/120/110 109/121/110 110/122/110 111/123/110 112/124/110 113/125/110 114/126/110 115/127/110 116/128/110 117/129/110 118/130/110
f 93/105/111 94/106/111 109/106/111 108/105/111
f 101/113/112 102/114/112 117/114/112 116/113/112
f 94/106/113 95/107/113 110/107/113 109/106/113
f 102/114/114 103/115/114 118/115/114 117/114/114
f 95/107/115 96/108/115 111/108/115 110/107/115
f 103/115/116 89/100/116 104/100/116 118/115/116
f 96/108/117 97/109/117 112/109/117 111/108/117
f 89/100/118 90/102/118 105/102/118 104/100/118
f 97/109/119 98/110/119 113/110/119 112/109/119
f 90/102/120 91/103/120 106/103/120 105/102/120
f 98/110/121 99/111/121 114/111/121 113/110/121
f 91/103/122 92/104/122 107/104/122 106/103/122
f 99/111/123 100/112/123 115/112/123 114/111/123
f 92/104/124 93/105/124 108/105/124 107/104/124
o Cube.004
v -0.069775 -1.158292 -0.119367
v -0.069775 -1.111632 -0.099420
v -0.091179 -1.111632 -0.119367
v -0.069775 -0.736376 -0.099420
v -0.069775 -0.689716 -0.119367
v -0.091179 -0.736376 -0.119367
v -0.069775 -1.158292 -0.279786
v -0.091179 -1.111632 -0.279786
v -0.069775 -1.111632 -0.299733
v -0.069775 -0.689716 -0.279786
v -0.069775 -0.736376 -0.299733
v -0.091179 -0.736376 -0.279786
v 0.102362 -1.158292 -0.119367
v 0.123766 -1.111632 -0.119367
v 0.102362 -1.111632 -0.099420
v 0.102362 -0.689716 -0.119367
v 0.102362 -0.736376 -0.099420
v 0.123766 -0.736376 -0.119367
v 0.102362 -1.158292 -0.279786
v 0.102362 -1.111632 -0.299733
v 0.123766 -1.111632 -0.279786
v 0.102362 -0.689716 -0.279786
v 0.123766 -0.736376 -0.279786
v 0.102362 -0.736376 -0.299733
vn -0.6507 -0.2985 0.6982
vn -0.6507 0.2985 0.6982
vn -0.6507 -0.2985 -0.6982
vn -0.6507 0.2985 -0.6982
vn 0.6507 -0.2985 0.6982
vn 0.6507 0.2985 0.6982
vn 0.6507 -0.2985 -0.6982
vn 0.6507 0.2985 -0.6982
vn -0.9089 -0.4169 -0.0000
vn -0.6818 -0.0000 0.7316
vn -0.9089 0.4169 -0.0000
vn -0.6818 -0.0000 -0.7316
vn -0.0000 -0.3931 -0.9195
vn -0.0000 0.3931 -0.9195
vn 0.6818 -0.0000 -0.7316
vn 0.9089 -0.4169 -0.0000
vn 0.9089 0.4169 -0.0000
vn 0.6818 -0.0000 0.7316
vn -0.0000 -0.3931 0.9195
vn -0.0000 0.3931 0.9195
vn -0.0000 -1.0000 -0.0000
vn -1.0000 -0.0000 -0.0000
vn -0.0000 -0.0000 1.0000
vn -0.0000 1.0000 -0.0000
vn -0.0000 -0.0000 -1.0000
vn 1.0000 -0.0000 -0.0000
vt 0.149895 0.725105
vt 0.149895 0.750000
vt 0.125000 0.725105
vt 0.600105 0.000000
vt 0.625000 0.024895
vt 0.600105 0.024895
vt 0.149895 0.524895
vt 0.125000 0.524895
vt 0.149895 0.500000
vt 0.625000 0.241702
vt 0.600105 0.268671
vt 0.600105 0.225105
vt 0.350105 0.725105
vt 0.393671 0.725105
vt 0.375000 0.762447
vt 0.637447 0.750000
vt 0.600105 0.774895
vt 0.600105 0.731329
vt 0.350105 0.524895
vt 0.375000 0.487553
vt 0.393671 0.524895
vt 0.637447 0.500000
vt 0.600105 0.518671
vt 0.600105 0.475105
vt 0.399895 0.000000
vt 0.399895 0.024895
vt 0.399895 0.274895
vt 0.399895 0.225105
vt 0.625000 0.975105
vt 0.600105 0.975105
vt 0.399895 0.975105
vt 0.850105 0.524895
vt 0.850105 0.725105
s 0
f 119/131/125 120/132/125 121/133/125
f 122/134/126 123/135/126 124/136/126
f 125/137/127 126/138/127 127/139/127
f 128/140/128 129/141/128 130/142/128
f 131/143/129 132/144/129 133/145/129
f 134/146/130 135/147/130 136/148/130
f 137/149/131 138/150/131 139/151/131
f 140/152/132 141/153/132 142/154/132
f 125/137/133 119/131/133 121/133/133 126/138/133
f 120/155/134 122/134/134 124/136/134 121/156/134
f 123/135/135 128/140/135 130/142/135 124/136/135
f 129/141/136 127/157/136 126/158/136 130/142/136
f 137/149/137 125/137/137 127/139/137 138/150/137
f 128/140/138 140/152/138 142/154/138 129/141/138
f 141/153/139 139/151/139 138/150/139 142/154/139
f 131/143/140 137/149/140 139/151/140 132/144/140
f 140/152/141 134/146/141 136/148/141 141/153/141
f 135/147/142 133/145/142 132/144/142 136/148/142
f 119/131/143 131/143/143 133/145/143 120/132/143
f 134/146/144 123/159/144 122/160/144 135/147/144
f 125/137/145 137/149/145 131/143/145 119/131/145
f 121/156/146 124/136/146 130/142/146 126/158/146
f 133/145/147 135/147/147 122/160/147 120/161/147
f 140/152/148 128/162/148 123/163/148 134/146/148
f 127/157/149 129/141/149 142/154/149 138/150/149
f 139/151/150 141/153/150 136/148/150 132/144/150
o Cube.005
v -0.069775 -1.158292 0.270916
v -0.069775 -1.111632 0.290863
v -0.091179 -1.111632 0.270916
v -0.069775 -0.736376 0.290863
v -0.069775 -0.689716 0.270916
v -0.091179 -0.736376 0.270916
v -0.069775 -1.158292 0.110497
v -0.091179 -1.111632 0.110497
v -0.069775 -1.111632 0.090550
v -0.069775 -0.689716 0.110497
v -0.069775 -0.736376 0.090550
v -0.091179 -0.736376 0.110497
v 0.102362 -1.158292 0.270916
v 0.123766 -1.111632 0.270916
v 0.102362 -1.111632 0.290863
v 0.102362 -0.689716 0.270916
v 0.102362 -0.736376 0.290863
v 0.123766 -0.736376 0.270916
v 0.102362 -1.158292 0.110497
v 0.102362 -1.111632 0.090550
v 0.123766 -1.111632 0.110497
v 0.102362 -0.689716 0.110497
v 0.123766 -0.736376 0.110497
v 0.102362 -0.736376 0.090550
vn -0.6507 -0.2985 0.6982
vn -0.6507 0.2985 0.6982
vn -0.6507 -0.2985 -0.6982
vn -0.6507 0.2985 -0.6982
vn 0.6507 -0.2985 0.6982
vn 0.6507 0.2985 0.6982
vn 0.6507 -0.2985 -0.6982
vn 0.6507 0.2985 -0.6982
vn -0.9089 -0.4169 -0.0000
vn -0.6818 -0.0000 0.7316
vn -0.9089 0.4169 -0.0000
vn -0.6818 -0.0000 -0.7316
vn -0.0000 -0.3931 -0.9195
vn -0.0000 0.3931 -0.9195
vn 0.6818 -0.0000 -0.7316
vn 0.9089 -0.4169 -0.0000
vn 0.9089 0.4169 -0.0000
vn 0.6818 -0.0000 0.7316
vn -0.0000 -0.3931 0.9195
vn -0.0000 0.3931 0.9195
vn -0.0000 -1.0000 -0.0000
vn -1.0000 -0.0000 -0.0000
vn -0.0000 -0.0000 1.0000
vn -0.0000 1.0000 -0.0000
vn -0.0000 -0.0000 -1.0000
vn 1.0000 -0.0000 -0.0000
vt 0.149895 0.725105
vt 0.149895 0.750000
vt 0.125000 0.725105
vt 0.600105 0.000000
vt 0.625000 0.024895
vt 0.600105 0.024895
vt 0.149895 0.524895
vt 0.125000 0.524895
vt 0.149895 0.500000
vt 0.625000 0.241702
vt 0.600105 0.268671
vt 0.600105 0.225105
vt 0.350105 0.725105
vt 0.393671 0.725105
vt 0.375000 0.762447
vt 0.637447 0.750000
vt 0.600105 0.774895
vt 0.600105 0.731329
vt 0.350105 0.524895
vt 0.375000 0.487553
vt 0.393671 0.524895
vt 0.637447 0.500000
vt 0.600105 0.518671
vt 0.600105 0.475105
vt 0.399895 0.000000
vt 0.399895 0.024895
vt 0.399895 0.274895
vt 0.399895 0.225105
vt 0.625000 0.975105
vt 0.600105 0.975105
vt 0.399895 0.975105
vt 0.850105 0.524895
vt 0.850105 0.725105
s 0
f 143/164/151 144/165/151 145/166/151
f 146/167/152 147/168/152 148/169/152
f 149/170/153 150/171/153 151/172/153
f 152/173/154 153/174/154 154/175/154
f 155/176/155 156/177/155 157/178/155
f 158/179/156 159/180/156 160/181/156
f 161/182/157 162/183/157 163/184/157
f 164/185/158 165/186/158 166/187/158
f 149/170/159 143/164/159 145/166/159 150/171/159
f 144/188/160 146/167/160 148/169/160 145/189/160
f 147/168/161 152/173/161 154/175/161 148/169/161
f 153/174/162 151/190/162 150/191/162 154/175/162
f 161/182/163 149/170/163 151/172/163 162/183/163
f 152/173/164 164/185/164 166/187/164 153/174/164
f 165/186/165 163/184/165 162/183/165 166/187/165
f 155/176/166 161/182/166 163/184/166 156/177/166
f 164/185/167 158/179/167 160/181/167 165/186/167
f 159/180/168 157/178/168 156/177/168 160/181/168
f 143/164/169 155/176/169 157/178/169 144/165/169
f 158/179/170 147/192/170 146/193/170 159/180/170
f 149/170/171 161/182/171 155/176/171 143/164/171
f 145/189/172 148/169/172 154/175/172 150/191/172
f 157/178/173 159/180/173 146/193/173 144/194/173
f 164/185/174 152/195/174 147/196/174 158/179/174
f 151/190/175 153/174/175 166/187/175 162/183/175
f 163/184/176 165/186/176 160/181/176 156/177/176
