# Blender 5.0.0
# www.blender.org
mtllib wings.mtl
o Plane.001
v 0.238075 -0.438342 0.608599
v 0.346877 -0.663645 0.608599
v 0.231024 -0.423741 0.511655
v 0.353928 -0.678246 0.511655
v 0.292476 -0.550994 0.346012
v 0.292476 -0.550994 0.490257
v 0.355664 -0.681843 0.574205
v 0.229287 -0.420145 0.574205
v 0.292476 -0.550994 0.525778
v 0.253131 -0.469520 0.617609
v 0.258144 -0.479901 0.503772
v 0.265276 -0.494668 0.386556
v 0.274706 -0.514197 0.584341
v 0.238075 -0.438342 0.449106
v 0.346877 -0.663645 0.449106
v 0.292476 -0.550994 0.427708
v 0.244389 -0.451416 0.425455
v 0.319186 -0.606305 0.386556
v 0.331330 -0.631453 0.617609
v 0.326317 -0.621072 0.503772
v 0.309756 -0.586776 0.584341
v 0.340073 -0.649556 0.425455
v 0.335525 -0.691568 0.574205
v 0.326737 -0.673371 0.608599
v 0.232992 -0.479245 0.617609
v 0.217936 -0.448068 0.608599
v 0.209148 -0.429870 0.574205
v 0.210885 -0.433466 0.511655
v 0.326737 -0.673371 0.449106
v 0.333789 -0.687972 0.511655
v 0.238005 -0.489626 0.503772
v 0.245136 -0.504393 0.386556
v 0.272337 -0.560719 0.346012
v 0.306178 -0.630797 0.503772
v 0.272337 -0.560719 0.490257
v 0.272337 -0.560719 0.427708
v 0.272337 -0.560719 0.525778
v 0.254567 -0.523922 0.584341
v 0.289616 -0.596501 0.584341
v 0.224249 -0.461142 0.425455
v 0.217936 -0.448068 0.449106
v 0.319934 -0.659282 0.425455
v 0.299047 -0.616030 0.386556
v 0.311191 -0.641178 0.617609
vn -0.9005 -0.4349 -0.0000
vn 0.9005 0.4349 -0.0000
vn 0.1095 -0.2268 -0.9678
vn -0.2422 0.5015 -0.8306
vn 0.3749 -0.7764 -0.5066
vn -0.2396 0.4961 0.8346
vn 0.4340 -0.8987 0.0637
vn 0.2422 -0.5015 -0.8306
vn -0.1063 0.2201 -0.9697
vn -0.4209 0.8717 0.2509
vn 0.4209 -0.8717 0.2509
vn 0.3598 -0.7452 -0.5615
vn 0.2365 -0.4898 0.8391
vn 0.2737 -0.5667 0.7771
vn -0.3627 0.7510 0.5517
vn 0.3706 -0.7674 0.5232
vn -0.3566 0.7385 -0.5722
vn -0.2737 0.5667 0.7771
vn -0.3749 0.7764 -0.5066
vn -0.4340 0.8987 0.0637
vt 0.745495 0.750000
vt 0.745495 1.000000
vt 1.000000 1.000000
vt 1.000000 0.750000
vt 0.745495 0.250000
vt 0.745495 0.500000
vt 1.000000 0.500000
vt 1.000000 0.250000
vt 0.250000 0.250000
vt 0.250000 0.500000
vt 0.500000 0.500000
vt 0.500000 0.250000
vt 0.250000 0.750000
vt 0.500000 0.750000
vt 0.000000 0.500000
vt 0.000000 0.750000
vt 0.000000 1.000000
vt 0.250000 1.000000
vt 0.000000 0.250000
vt 0.250000 0.000000
vt 0.500000 0.000000
vt 0.745495 0.000000
s 0
f 21/1/1 7/4/1 2/3/1 19/2/1
f 22/5/1 15/8/1 4/7/1 20/6/1
f 17/9/1 16/12/1 6/11/1 11/10/1
f 11/10/1 6/11/1 9/14/1 13/13/1
f 20/6/1 4/7/1 7/4/1 21/1/1
f 3/15/1 11/10/1 13/13/1 8/16/1
f 8/16/1 13/13/1 10/18/1 1/17/1
f 14/19/1 17/9/1 11/10/1 3/15/1
f 12/20/1 5/21/1 16/12/1 17/9/1
f 5/21/1 18/22/1 22/5/1 16/12/1
f 6/11/1 20/6/1 21/1/1 9/14/1
f 16/12/1 22/5/1 20/6/1 6/11/1
f 39/1/2 44/2/2 24/3/2 23/4/2
f 42/5/2 34/6/2 30/7/2 29/8/2
f 40/9/2 31/10/2 35/11/2 36/12/2
f 31/10/2 38/13/2 37/14/2 35/11/2
f 34/6/2 39/1/2 23/4/2 30/7/2
f 28/15/2 27/16/2 38/13/2 31/10/2
f 27/16/2 26/17/2 25/18/2 38/13/2
f 41/19/2 28/15/2 31/10/2 40/9/2
f 32/20/2 40/9/2 36/12/2 33/21/2
f 33/21/2 36/12/2 42/5/2 43/22/2
f 35/11/2 37/14/2 39/1/2 34/6/2
f 36/12/2 35/11/2 34/6/2 42/5/2
f 10/18/3 25/18/3 26/17/3 1/17/3
f 13/13/4 38/13/4 25/18/4 10/18/4
f 1/17/5 26/17/5 27/16/5 8/16/5
f 5/21/6 33/21/6 43/22/6 18/22/6
f 8/16/7 27/16/7 28/15/7 3/15/7
f 19/2/8 44/2/8 39/1/8 21/1/8
f 2/3/9 24/3/9 44/2/9 19/2/9
f 15/8/10 29/8/10 30/7/10 4/7/10
f 3/15/11 28/15/11 41/19/11 14/19/11
f 21/1/12 39/1/12 37/14/12 9/14/12
f 12/20/13 32/20/13 33/21/13 5/21/13
f 17/9/14 40/9/14 32/20/14 12/20/14
f 22/5/15 42/5/15 29/8/15 15/8/15
f 14/19/16 41/19/16 40/9/16 17/9/16
f 9/14/17 37/14/17 38/13/17 13/13/17
f 18/22/18 43/22/18 42/5/18 22/5/18
f 7/4/19 23/4/19 24/3/19 2/3/19
f 4/7/20 30/7/20 23/4/20 7/4/20
o Plane
v 0.238075 -0.438342 -0.579402
v 0.346877 -0.663645 -0.579402
v 0.231024 -0.423741 -0.482458
v 0.353928 -0.678246 -0.482458
v 0.292476 -0.550994 -0.316815
v 0.292476 -0.550994 -0.461060
v 0.355664 -0.681843 -0.545008
v 0.229287 -0.420145 -0.545008
v 0.292476 -0.550994 -0.496581
v 0.253131 -0.469520 -0.588412
v 0.258144 -0.479901 -0.474575
v 0.265276 -0.494668 -0.357359
v 0.274706 -0.514197 -0.555144
v 0.238075 -0.438342 -0.419909
v 0.346877 -0.663645 -0.419909
v 0.292476 -0.550994 -0.398511
v 0.244389 -0.451416 -0.396258
v 0.319186 -0.606305 -0.357359
v 0.331330 -0.631453 -0.588412
v 0.326317 -0.621072 -0.474575
v 0.309756 -0.586776 -0.555144
v 0.340073 -0.649556 -0.396258
v 0.335525 -0.691568 -0.545008
v 0.326737 -0.673371 -0.579402
v 0.232992 -0.479245 -0.588412
v 0.217936 -0.448068 -0.579402
v 0.209148 -0.429870 -0.545008
v 0.210885 -0.433466 -0.482458
v 0.326737 -0.673371 -0.419909
v 0.333789 -0.687972 -0.482458
v 0.238005 -0.489626 -0.474575
v 0.245136 -0.504393 -0.357359
v 0.272337 -0.560719 -0.316815
v 0.306178 -0.630797 -0.474575
v 0.272337 -0.560719 -0.461060
v 0.272337 -0.560719 -0.398511
v 0.272337 -0.560719 -0.496581
v 0.254567 -0.523922 -0.555144
v 0.289616 -0.596501 -0.555144
v 0.224249 -0.461142 -0.396258
v 0.217936 -0.448068 -0.419909
v 0.319934 -0.659282 -0.396258
v 0.299047 -0.616030 -0.357359
v 0.311191 -0.641178 -0.588412
vn -0.9005 -0.4349 -0.0000
vn 0.9005 0.4349 -0.0000
vn 0.1095 -0.2268 0.9678
vn -0.2422 0.5015 0.8306
vn 0.3749 -0.7764 0.5066
vn -0.2396 0.4961 -0.8346
vn 0.4340 -0.8987 -0.0637
vn 0.2422 -0.5015 0.8306
vn -0.1063 0.2201 0.9697
vn -0.4209 0.8717 -0.2509
vn 0.4209 -0.8717 -0.2509
vn 0.3598 -0.7452 0.5615
vn 0.2365 -0.4898 -0.8391
vn 0.2737 -0.5667 -0.7771
vn -0.3627 0.7510 -0.5517
vn 0.3706 -0.7674 -0.5232
vn -0.3566 0.7385 0.5722
vn -0.2737 0.5667 -0.7771
vn -0.3749 0.7764 0.5066
vn -0.4340 0.8987 -0.0637
vt 0.745495 0.750000
vt 0.745495 1.000000
vt 1.000000 1.000000
vt 1.000000 0.750000
vt 0.745495 0.250000
vt 0.745495 0.500000
vt 1.000000 0.500000
vt 1.000000 0.250000
vt 0.250000 0.250000
vt 0.250000 0.500000
vt 0.500000 0.500000
vt 0.500000 0.250000
vt 0.250000 0.750000
vt 0.500000 0.750000
vt 0.000000 0.500000
vt 0.000000 0.750000
vt 0.000000 1.000000
vt 0.250000 1.000000
vt 0.000000 0.250000
vt 0.250000 0.000000
vt 0.500000 0.000000
vt 0.745495 0.000000
s 0
f 65/23/21 63/24/21 46/25/21 51/26/21
f 66/27/21 64/28/21 48/29/21 59/30/21
f 61/31/21 55/32/21 50/33/21 60/34/21
f 55/32/21 57/35/21 53/36/21 50/33/21
f 64/28/21 65/23/21 51/26/21 48/29/21
f 47/37/21 52/38/21 57/35/21 55/32/21
f 52/38/21 45/39/21 54/40/21 57/35/21
f 58/41/21 47/37/21 55/32/21 61/31/21
f 56/42/21 61/31/21 60/34/21 49/43/21
f 49/43/21 60/34/21 66/27/21 62/44/21
f 50/33/21 53/36/21 65/23/21 64/28/21
f 60/34/21 50/33/21 64/28/21 66/27/21
f 83/23/22 67/26/22 68/25/22 88/24/22
f 86/27/22 73/30/22 74/29/22 78/28/22
f 84/31/22 80/34/22 79/33/22 75/32/22
f 75/32/22 79/33/22 81/36/22 82/35/22
f 78/28/22 74/29/22 67/26/22 83/23/22
f 72/37/22 75/32/22 82/35/22 71/38/22
f 71/38/22 82/35/22 69/40/22 70/39/22
f 85/41/22 84/31/22 75/32/22 72/37/22
f 76/42/22 77/43/22 80/34/22 84/31/22
f 77/43/22 87/44/22 86/27/22 80/34/22
f 79/33/22 78/28/22 83/23/22 81/36/22
f 80/34/22 86/27/22 78/28/22 79/33/22
f 54/40/23 45/39/23 70/39/23 69/40/23
f 57/35/24 54/40/24 69/40/24 82/35/24
f 45/39/25 52/38/25 71/38/25 70/39/25
f 49/43/26 62/44/26 87/44/26 77/43/26
f 52/38/27 47/37/27 72/37/27 71/38/27
f 63/24/28 65/23/28 83/23/28 88/24/28
f 46/25/29 63/24/29 88/24/29 68/25/29
f 59/30/30 48/29/30 74/29/30 73/30/30
f 47/37/31 58/41/31 85/41/31 72/37/31
f 65/23/32 53/36/32 81/36/32 83/23/32
f 56/42/33 49/43/33 77/43/33 76/42/33
f 61/31/34 56/42/34 76/42/34 84/31/34
f 66/27/35 59/30/35 73/30/35 86/27/35
f 58/41/36 61/31/36 84/31/36 85/41/36
f 53/36/37 57/35/37 82/35/37 81/36/37
f 62/44/38 66/27/38 86/27/38 87/44/38
f 51/26/39 46/25/39 68/25/39 67/26/39
f 48/29/40 51/26/40 67/26/40 74/29/40
